<svg width="18" height="18" viewBox="0 0 18 18" fill="none" xmlns="http://www.w3.org/2000/svg">
<path d="M13.167 2.50001H16.5003C16.7213 2.50001 16.9333 2.58781 17.0896 2.74409C17.2459 2.90037 17.3337 3.11233 17.3337 3.33334V16.6667C17.3337 16.8877 17.2459 17.0997 17.0896 17.2559C16.9333 17.4122 16.7213 17.5 16.5003 17.5H1.50033C1.27931 17.5 1.06735 17.4122 0.91107 17.2559C0.75479 17.0997 0.666992 16.8877 0.666992 16.6667V3.33334C0.666992 3.11233 0.75479 2.90037 0.91107 2.74409C1.06735 2.58781 1.27931 2.50001 1.50033 2.50001H4.83366V0.833344H6.50033V2.50001H11.5003V0.833344H13.167V2.50001ZM15.667 7.50001V4.16668H13.167V5.83334H11.5003V4.16668H6.50033V5.83334H4.83366V4.16668H2.33366V7.50001H15.667ZM15.667 9.16668H2.33366V15.8333H15.667V9.16668ZM4.00033 10.8333H8.16699V14.1667H4.00033V10.8333Z" fill="#5D80B6"/>
</svg>
