<svg width="19" height="20" viewBox="0 0 19 20" fill="none" xmlns="http://www.w3.org/2000/svg">
<path d="M9.5 14.0001H5.5V6.00012H9.5C10.5609 6.00012 11.5783 6.42155 12.3284 7.17169C13.0786 7.92184 13.5 8.93926 13.5 10.0001C13.5 11.061 13.0786 12.0784 12.3284 12.8285C11.5783 13.5787 10.5609 14.0001 9.5 14.0001ZM7.5 8.00012V12.0001H9.5C10.0304 12.0001 10.5391 11.7894 10.9142 11.4143C11.2893 11.0393 11.5 10.5306 11.5 10.0001C11.5 9.46969 11.2893 8.96098 10.9142 8.58591C10.5391 8.21084 10.0304 8.00012 9.5 8.00012H7.5ZM12.5 2.00012H2.5V18.0001H16.5V6.00012H12.5V2.00012ZM0.5 0.992122C0.5 0.444122 0.947 0.00012207 1.499 0.00012207H13.5L18.5 5.00012V18.9931C18.5009 19.1244 18.476 19.2547 18.4266 19.3763C18.3772 19.498 18.3043 19.6088 18.2121 19.7023C18.1199 19.7958 18.0101 19.8702 17.8892 19.9213C17.7682 19.9724 17.6383 19.9992 17.507 20.0001H1.493C1.23038 19.9983 0.979017 19.8932 0.793218 19.7076C0.607418 19.522 0.502095 19.2707 0.5 19.0081V0.992122Z" fill="#101E5A"/>
</svg>
