<svg width="19" height="19" viewBox="0 0 19 19" fill="none" xmlns="http://www.w3.org/2000/svg">
<path d="M0.666992 18.3333C0.666992 16.5652 1.36937 14.8695 2.61961 13.6193C3.86986 12.3691 5.56555 11.6667 7.33366 11.6667C9.10177 11.6667 10.7975 12.3691 12.0477 13.6193C13.2979 14.8695 14.0003 16.5652 14.0003 18.3333H12.3337C12.3337 17.0073 11.8069 15.7355 10.8692 14.7978C9.93151 13.8601 8.65974 13.3333 7.33366 13.3333C6.00758 13.3333 4.73581 13.8601 3.79813 14.7978C2.86044 15.7355 2.33366 17.0073 2.33366 18.3333H0.666992ZM7.33366 10.8333C4.57116 10.8333 2.33366 8.59584 2.33366 5.83334C2.33366 3.07084 4.57116 0.833344 7.33366 0.833344C10.0962 0.833344 12.3337 3.07084 12.3337 5.83334C12.3337 8.59584 10.0962 10.8333 7.33366 10.8333ZM7.33366 9.16668C9.17533 9.16668 10.667 7.67501 10.667 5.83334C10.667 3.99168 9.17533 2.50001 7.33366 2.50001C5.49199 2.50001 4.00033 3.99168 4.00033 5.83334C4.00033 7.67501 5.49199 9.16668 7.33366 9.16668ZM14.237 12.2525C15.4081 12.7799 16.402 13.6344 17.0991 14.7131C17.7963 15.7918 18.1671 17.0489 18.167 18.3333H16.5003C16.5005 17.37 16.2225 16.4271 15.6996 15.618C15.1767 14.8089 14.4312 14.1681 13.5528 13.7725L14.2362 12.2525H14.237ZM13.6637 2.84418C14.5033 3.19026 15.2211 3.77796 15.7262 4.5327C16.2312 5.28745 16.5007 6.17521 16.5003 7.08334C16.5007 8.22695 16.0734 9.32937 15.3024 10.174C14.5315 11.0187 13.4726 11.5446 12.3337 11.6483V9.97084C12.9511 9.88241 13.5239 9.59836 13.9681 9.16039C14.4122 8.72242 14.7042 8.15361 14.8013 7.53746C14.8983 6.9213 14.7953 6.29026 14.5073 5.73697C14.2193 5.18368 13.7615 4.7373 13.2012 4.46334L13.6637 2.84418Z" fill="#5D80B6"/>
</svg>
