<svg width="14" height="14" viewBox="0 0 14 14" fill="none" xmlns="http://www.w3.org/2000/svg">
<path d="M7 13.4168C7 13.4168 12.25 9.91683 12.25 5.8335C12.25 4.44111 11.6969 3.10575 10.7123 2.12119C9.72774 1.13662 8.39239 0.583496 7 0.583496C5.60761 0.583496 4.27226 1.13662 3.28769 2.12119C2.30312 3.10575 1.75 4.44111 1.75 5.8335C1.75 9.91683 7 13.4168 7 13.4168Z" stroke="#262627" stroke-linecap="round" stroke-linejoin="round"/>
<path d="M7 7.5835C7.9665 7.5835 8.75 6.79999 8.75 5.8335C8.75 4.867 7.9665 4.0835 7 4.0835C6.0335 4.0835 5.25 4.867 5.25 5.8335C5.25 6.79999 6.0335 7.5835 7 7.5835Z" stroke="#333538" stroke-linecap="round" stroke-linejoin="round"/>
</svg>
