<svg width="24" height="24" viewBox="0 0 24 24" fill="none" xmlns="http://www.w3.org/2000/svg">
<path d="M11.9997 23.6666C5.55618 23.6666 0.333008 18.4434 0.333008 11.9999C0.333008 5.55642 5.55618 0.333252 11.9997 0.333252C18.4432 0.333252 23.6663 5.55642 23.6663 11.9999C23.6663 18.4434 18.4432 23.6666 11.9997 23.6666ZM6.18151 19.2986C7.83298 20.6189 9.8853 21.3366 11.9997 21.3333C14.298 21.3333 16.4015 20.5026 18.0278 19.1259C17.268 18.3463 16.3596 17.7269 15.3562 17.3045C14.3529 16.8821 13.275 16.6652 12.1863 16.6666C11.0577 16.6653 9.9411 16.8986 8.90738 17.3517C7.87367 17.8048 6.94542 18.4678 6.18151 19.2986ZM4.55167 17.6233C5.5322 16.5827 6.71546 15.7539 8.0285 15.1881C9.34155 14.6223 10.7566 14.3313 12.1863 14.3333C13.5649 14.3315 14.9303 14.602 16.204 15.1294C17.4778 15.6567 18.6348 16.4305 19.6087 17.4063C20.6074 16.0006 21.1972 14.3457 21.3127 12.6252C21.4281 10.9046 21.0646 9.18579 20.2626 7.65928C19.4605 6.13278 18.2513 4.85831 16.769 3.97727C15.2867 3.09623 13.5892 2.64306 11.865 2.66805C10.1408 2.69303 8.45728 3.19518 7.00111 4.1188C5.54495 5.04242 4.37313 6.35139 3.61565 7.90049C2.85817 9.44959 2.54465 11.1782 2.70988 12.8947C2.8751 14.6111 3.51261 16.2483 4.55167 17.6244V17.6233ZM11.9997 13.1666C10.762 13.1666 9.57501 12.6749 8.69984 11.7998C7.82467 10.9246 7.33301 9.7376 7.33301 8.49992C7.33301 7.26224 7.82467 6.07526 8.69984 5.20009C9.57501 4.32492 10.762 3.83325 11.9997 3.83325C13.2374 3.83325 14.4243 4.32492 15.2995 5.20009C16.1747 6.07526 16.6663 7.26224 16.6663 8.49992C16.6663 9.7376 16.1747 10.9246 15.2995 11.7998C14.4243 12.6749 13.2374 13.1666 11.9997 13.1666ZM11.9997 10.8333C12.6185 10.8333 13.212 10.5874 13.6496 10.1498C14.0872 9.71225 14.333 9.11876 14.333 8.49992C14.333 7.88108 14.0872 7.28759 13.6496 6.85C13.212 6.41242 12.6185 6.16659 11.9997 6.16659C11.3808 6.16659 10.7873 6.41242 10.3498 6.85C9.91218 7.28759 9.66634 7.88108 9.66634 8.49992C9.66634 9.11876 9.91218 9.71225 10.3498 10.1498C10.7873 10.5874 11.3808 10.8333 11.9997 10.8333Z" fill="#5D80B6"/>
</svg>
