<svg width="25" height="25" viewBox="0 0 25 25" fill="none" xmlns="http://www.w3.org/2000/svg">
<path d="M19.0358 17.3864L24.0327 22.3821L22.3818 24.0329L17.3862 19.0361C15.5274 20.5262 13.2153 21.3366 10.833 21.3333C5.03701 21.3333 0.333008 16.6293 0.333008 10.8333C0.333008 5.03725 5.03701 0.333252 10.833 0.333252C16.629 0.333252 21.333 5.03725 21.333 10.8333C21.3364 13.2156 20.5259 15.5276 19.0358 17.3864ZM16.6955 16.5208C18.1761 14.9981 19.003 12.9571 18.9997 10.8333C18.9997 6.32059 15.3445 2.66659 10.833 2.66659C6.32034 2.66659 2.66634 6.32059 2.66634 10.8333C2.66634 15.3448 6.32034 18.9999 10.833 18.9999C12.9568 19.0033 14.9979 18.1764 16.5205 16.6958L16.6955 16.5208Z" fill="#5D80B6"/>
</svg>
